<svg width="40" height="26" viewBox="0 0 40 26" fill="none" xmlns="http://www.w3.org/2000/svg">
<path d="M19.9994 0C8.95377 0 0 5.82069 0 13.0006C0 20.1806 8.95377 26 19.9994 26C31.045 26 40 20.1793 40 13.0006C40 5.82196 31.045 0 19.9994 0ZM19.9994 20.4194C18.3562 20.4194 17.0165 17.1686 16.9305 13.0769C17.9202 13.1671 18.9528 13.2141 19.9994 13.2141C21.0459 13.2141 22.0786 13.1671 23.0695 13.0769C22.9823 17.1686 21.6412 20.4194 19.9994 20.4194ZM17.1353 9.83114C17.5827 6.93858 18.6962 4.88953 19.9994 4.88953C21.3025 4.88953 22.4173 6.93858 22.8647 9.83114C21.9484 9.91372 20.989 9.95818 19.9994 9.95818C19.0097 9.95818 18.0516 9.90863 17.1353 9.83114ZM19.9994 1.88264C17.8507 1.88264 16.0255 5.1093 15.3506 9.61138C11.2832 8.97621 8.44314 7.52294 8.44314 5.83593C8.44314 3.55695 13.6177 1.71496 19.9994 1.71496C26.381 1.71496 31.5556 3.55695 31.5556 5.83593C31.5556 7.52294 28.7168 8.9724 24.6494 9.61138C23.9745 5.1093 22.1468 1.88264 19.9994 1.88264ZM2.86789 12.5128C2.86789 10.3088 3.71094 8.24449 5.1809 6.46856C5.16404 6.59489 5.1556 6.7222 5.15562 6.84966C5.15562 9.62662 9.29883 11.9894 15.0776 12.8596C15.0776 13.0616 15.0776 13.2649 15.0776 13.4694C15.0776 18.6422 16.521 23.0223 18.513 24.5086C9.74374 23.9725 2.86789 18.801 2.86789 12.5128ZM21.487 24.5035C23.4803 23.0172 24.9237 18.6371 24.9237 13.4643C24.9237 13.2598 24.9237 13.0565 24.9237 12.8545C30.7024 11.9844 34.8456 9.62154 34.8456 6.84458C34.8459 6.71707 34.837 6.58971 34.8191 6.46348C36.2903 8.24195 37.1334 10.3037 37.1334 12.5077C37.1321 18.801 30.255 23.9725 21.487 24.5035Z" fill="#282830"/>
</svg>
